# xmcd
#
# Track frame offsets: 
#        150
#        13743
#        30601
#        48325
#        63623
#        74533
#        89595
#        104151
#        123665
#        138271
#        152159
#        168275
#        198113
#        212023
#        230634
#        250211
#        285336
#        297922
#        310344
#        325513
#
# Disc length: 4601 seconds
#
# Revision: 2
# Processed by: cddbd v1.5.2PL0 Copyright (c) Steve Scherf et al.
# Submitted via: ExactAudioCopy v0.95b2
#
DISCID=2a11f714
DTITLE=Al Green - The Legendary Hi Records Albums Volume2 - Disc2
DYEAR=2006
DGENRE=R&B
TTITLE0=Sha-La-La (Make Me Happy)
TTITLE1=Take Me To The River
TTITLE2=God Blessed Our Love
TTITLE3=The City
TTITLE4=One Nite Stand
TTITLE5=I'm Hooked On You
TTITLE6=Stay With Me Forever
TTITLE7=Hangin' On
TTITLE8=School Days
TTITLE9=L-O-V-E (Love)
TTITLE10=Rhymes
TTITLE11=The Love Sermon
TTITLE12=There Is Love
TTITLE13=Could I Be The One
TTITLE14=Love Ritual
TTITLE15=I Didn't Know
TTITLE16=Oh Me, Oh My (Dreams In My Arms)
TTITLE17=I Gotta Be More
TTITLE18=I Wish You Were Here
TTITLE19=Strong As Death (Sweet As Love)
EXTD=
EXTT0=
EXTT1=
EXTT2=
EXTT3=
EXTT4=
EXTT5=
EXTT6=
EXTT7=
EXTT8=
EXTT9=
EXTT10=
EXTT11=
EXTT12=
EXTT13=
EXTT14=
EXTT15=
EXTT16=
EXTT17=
EXTT18=
EXTT19=
PLAYORDER=
